# xmcd
#
# Track frame offsets:
#	150
#	21162
#	44701
#	63907
#	78840
#	98295
#	110922
#	126583
#	141780
#	153032
#	167287
#
# Disc length: 2555
#
# Revision: 1
# Processed by: cddbd v1.5.1PL0 Copyright (c) Steve Scherf et al.
# Submitted via: CDex 1.51
# Normalized: r0:TRMNUM
#
DISCID=8609f90b
DTITLE=Buddha Cafe  - Chilled
DYEAR=2003
DGENRE=New Age
TTITLE0=Born To Be Wild 
TTITLE1=Smoke On The Water
TTITLE2=A Hard Day's Night
TTITLE3=Money
TTITLE4=I Can't Get No Satisfaction
TTITLE5=We Are The Champions
TTITLE6=We Will Rock You
TTITLE7=Wholle Lotte Love
TTITLE8=Yesterday
TTITLE9=You Really Got Me
TTITLE10=You Shook Me All Night Long
EXTD=YEAR: 2003
EXTT0=
EXTT1=
EXTT2=
EXTT3=
EXTT4=
EXTT5=
EXTT6=
EXTT7=
EXTT8=
EXTT9=
EXTT10=
PLAYORDER=
